<svg width="34" height="34" viewBox="0 0 34 34" fill="none" xmlns="http://www.w3.org/2000/svg">
<rect width="34" height="34" rx="3" fill="#373737"/>
<path d="M20.7831 8.21159L18.784 8.20837C16.5381 8.20837 15.0867 9.70004 15.0867 12.0088V13.761H13.0767C12.903 13.761 12.7623 13.9021 12.7623 14.0761V16.6149C12.7623 16.7888 12.9032 16.9297 13.0767 16.9297H15.0867V23.3359C15.0867 23.5099 15.2273 23.6508 15.401 23.6508H18.0235C18.1972 23.6508 18.3379 23.5098 18.3379 23.3359V16.9297H20.688C20.8617 16.9297 21.0024 16.7888 21.0024 16.6149L21.0033 14.0761C21.0033 13.9925 20.9701 13.9125 20.9113 13.8534C20.8524 13.7943 20.7722 13.761 20.6888 13.761H18.3379V12.2756C18.3379 11.5617 18.5077 11.1992 19.4361 11.1992L20.7828 11.1988C20.9563 11.1988 21.097 11.0577 21.097 10.8839V8.52647C21.097 8.3528 20.9565 8.21191 20.7831 8.21159Z" fill="white"/>
</svg>
