<svg width="34" height="34" viewBox="0 0 34 34" fill="none" xmlns="http://www.w3.org/2000/svg">
<rect width="34" height="34" rx="3" fill="#373737"/>
<path d="M21.8088 9.80038C20.7556 8.77378 19.298 8.20837 17.7046 8.20837C15.2706 8.20837 13.7736 9.22139 12.9464 10.0712C11.9269 11.1184 11.3423 12.5089 11.3423 13.8863C11.3423 15.6156 12.0547 16.943 13.2477 17.4368C13.3278 17.4701 13.4084 17.4869 13.4874 17.4869C13.7391 17.4869 13.9386 17.3197 14.0077 17.0514C14.0479 16.8976 14.1413 16.5179 14.1818 16.3531C14.2687 16.0277 14.1985 15.8712 14.0091 15.6445C13.664 15.23 13.5033 14.7398 13.5033 14.1018C13.5033 12.2069 14.8931 10.1929 17.4688 10.1929C19.5125 10.1929 20.7821 11.3723 20.7821 13.2708C20.7821 14.4688 20.5279 15.5782 20.0663 16.3949C19.7455 16.9624 19.1814 17.6388 18.3155 17.6388C17.941 17.6388 17.6046 17.4827 17.3924 17.2104C17.1918 16.953 17.1258 16.6205 17.2064 16.2739C17.2975 15.8824 17.4217 15.474 17.5419 15.0791C17.7612 14.358 17.9685 13.6769 17.9685 13.1335C17.9685 12.204 17.4057 11.5794 16.5681 11.5794C15.5037 11.5794 14.6699 12.6771 14.6699 14.0783C14.6699 14.7656 14.8497 15.2795 14.9312 15.4769C14.7971 16.0538 14.0002 19.4831 13.849 20.1298C13.7616 20.5073 13.2351 23.489 14.1066 23.7267C15.0857 23.9938 15.961 21.0899 16.0501 20.7618C16.1223 20.4949 16.3749 19.4858 16.5297 18.8655C17.0024 19.3278 17.7635 19.6403 18.504 19.6403C19.9001 19.6403 21.1557 19.0024 22.0394 17.8443C22.8965 16.721 23.3685 15.1553 23.3685 13.436C23.3685 12.0918 22.8 10.7666 21.8088 9.80038Z" fill="white"/>
</svg>
